<svg width="45" height="56" viewBox="0 0 45 56" fill="none" xmlns="http://www.w3.org/2000/svg">
<path d="M22.5 12.0005C20.4772 12.0005 18.4999 12.587 16.818 13.6858C15.1362 14.7847 13.8253 16.3465 13.0512 18.1739C12.2772 20.0012 12.0746 22.0119 12.4692 23.9518C12.8639 25.8917 13.8379 27.6736 15.2682 29.0722C16.6985 30.4708 18.5209 31.4232 20.5048 31.8091C22.4887 32.195 24.545 31.9969 26.4138 31.24C28.2826 30.4831 29.8799 29.2013 31.0037 27.5568C32.1275 25.9122 32.7273 23.9787 32.7273 22.0009C32.7205 19.3506 31.6408 16.8108 29.7243 14.9368C27.8078 13.0628 25.2104 12.0071 22.5 12.0005ZM22.5 28.0011C21.2863 28.0011 20.0999 27.6492 19.0908 26.9899C18.0817 26.3305 17.2952 25.3934 16.8307 24.297C16.3663 23.2006 16.2448 21.9942 16.4815 20.8303C16.7183 19.6663 17.3028 18.5972 18.1609 17.758C19.0191 16.9189 20.1125 16.3474 21.3029 16.1159C22.4932 15.8844 23.727 16.0032 24.8483 16.4574C25.9696 16.9115 26.9279 17.6806 27.6022 18.6673C28.2765 19.654 28.6364 20.8141 28.6364 22.0009C28.6296 23.5902 27.981 25.1126 26.8316 26.2364C25.6823 27.3602 24.1254 27.9945 22.5 28.0011ZM22.5 0C16.5347 0.00661709 10.8157 2.32668 6.59757 6.45121C2.37947 10.5757 0.00676721 16.1679 0 22.0009C0 29.8512 3.70739 38.1765 10.7386 46.0518C13.8993 49.619 17.4487 52.8382 21.3239 55.6522C21.6723 55.879 22.0815 56 22.5 56C22.9186 56 23.3277 55.879 23.6761 55.6522C27.5626 52.8424 31.121 49.6229 34.2869 46.0518C41.2926 38.1765 45 29.8512 45 22.0009C44.9932 16.1679 42.6205 10.5757 38.4024 6.45121C34.1843 2.32668 28.4653 0.00661709 22.5 0ZM22.5 51.502C18.2813 48.2519 4.09091 36.3014 4.09091 22.0009C4.09091 17.2268 6.03043 12.6482 9.48281 9.27244C12.9352 5.89665 17.6176 4.00016 22.5 4.00016C27.3824 4.00016 32.0648 5.89665 35.5172 9.27244C38.9696 12.6482 40.9091 17.2268 40.9091 22.0009C40.9091 36.3014 26.7188 48.2519 22.5 51.502Z" fill="#4F4B4C"/>
</svg>
